<svg width="100" height="100" viewBox="0 0 100 100" fill="none" xmlns="http://www.w3.org/2000/svg">
<rect width="100" height="100" fill="#1E1E1E"/>
<g clip-path="url(#clip0_0_1)">
<rect width="100" height="100" fill="white"/>
<path d="M49.936 4C22.4001 4 0 26.4031 0 53.9391C0 71.2391 8.75781 87.0626 23.428 96.2641C24.8874 97.1891 26.8155 96.7406 27.7344 95.2781C28.6532 93.8156 28.2109 91.8875 26.7484 90.972C21.4656 87.6563 17.0766 83.3501 13.7187 78.386L16.9953 76.4939C18.4905 75.6298 19.0031 73.7204 18.1391 72.2252C17.2719 70.7268 15.3594 70.2174 13.8703 71.0814L10.5891 72.9751C8.20625 68.0424 6.75146 62.6438 6.3624 57.0157H9.84053C11.5671 57.0157 12.9655 55.6173 12.9655 53.8907C12.9655 52.1642 11.5671 50.7657 9.84053 50.7657H6.37803C6.79209 45.0346 8.30928 39.6032 10.7296 34.6923L13.8702 36.5048C14.344 36.7797 14.8821 36.9242 15.4298 36.9235C16.5094 36.9235 17.5594 36.3626 18.1391 35.361C19.003 33.8657 18.4906 31.9548 16.9953 31.0922L13.8859 29.2984C17.0219 24.725 21.0016 20.7734 25.6031 17.6751L27.3625 20.722C27.9421 21.7267 28.9921 22.2845 30.0718 22.2845C30.603 22.2845 31.1405 22.1501 31.6312 21.8657C33.1265 21.0017 33.6391 19.0923 32.775 17.597L31.0218 14.5626C35.8391 12.2392 41.1468 10.7876 46.7421 10.3813V14.2751C46.7421 16.0017 48.1405 17.4001 49.8671 17.4001C51.5937 17.4001 52.9921 16.0017 52.9921 14.2751V10.3688C58.714 10.7673 64.1374 12.2625 69.0452 14.6608L67.3499 17.5953C66.4858 19.0905 66.9983 21.0016 68.4937 21.8641C68.9674 22.139 69.5054 22.2834 70.0531 22.2828C71.1327 22.2828 72.1827 21.725 72.7624 20.7203L74.4499 17.7969C79.0123 20.9033 82.9504 24.8393 86.0593 29.4L83.1327 31.0906C81.6375 31.9546 81.1249 33.8641 81.9891 35.3592C82.5687 36.364 83.6187 36.9217 84.6983 36.9217C85.2296 36.9217 85.7671 36.7874 86.2578 36.503L89.1999 34.8046C91.6015 39.714 93.1017 45.1389 93.5015 50.8625H90.0704C88.3439 50.8625 86.9454 52.2609 86.9454 53.9875C86.9454 55.7141 88.3439 57.1125 90.0704 57.1125H93.5001C93.1048 62.6672 91.6845 67.9952 89.3501 72.8656L86.2563 71.0797C84.7642 70.2156 82.847 70.7313 81.9876 72.2235C81.1235 73.7188 81.636 75.6298 83.1313 76.4923L86.2345 78.2844C82.8064 83.3859 78.2813 87.7954 72.8205 91.1578C71.3503 92.0641 70.8955 93.9906 71.7986 95.4578C72.3909 96.4156 73.4128 96.9438 74.4627 96.9438C75.0405 96.9438 75.607 96.7831 76.0987 96.4797C90.9878 87.3094 99.8753 71.4031 99.8753 53.9375C99.8753 26.4031 77.4722 4 49.9362 4H49.936ZM72.9953 44.1953C74.4891 43.3313 75.0016 41.4221 74.1391 39.9268C73.2766 38.433 71.3641 37.9205 69.8703 38.7846L52.8953 48.5846C51.9891 48.0721 50.9562 47.7549 49.8406 47.7549C46.3953 47.7549 43.6062 50.547 43.6062 53.986C43.6062 57.4282 46.3969 60.2204 49.8406 60.2204C53.2859 60.2204 56.075 57.4282 56.075 53.986C56.075 53.9798 56.0734 53.972 56.0734 53.9656L72.9953 44.1953Z" fill="black"/>
<rect x="37" y="30" width="41" height="36" fill="white"/>
<rect x="20" y="52" width="30" height="4" fill="black"/>
<circle cx="50" cy="54" r="5" fill="black"/>
</g>
<defs>
<clipPath id="clip0_0_1">
<rect width="100" height="100" fill="white"/>
</clipPath>
</defs>
</svg>
