<?xml version="1.0" encoding="UTF-8" standalone="no"?>
<!-- Created with Inkscape (http://www.inkscape.org/) -->

<svg
   width="49.999992mm"
   height="49.999996mm"
   viewBox="0 0 49.999992 49.999996"
   version="1.1"
   id="svg5"
   xml:space="preserve"
   sodipodi:docname="followMapActive.svg"
   inkscape:version="1.2.2 (732a01da63, 2022-12-09)"
   xmlns:inkscape="http://www.inkscape.org/namespaces/inkscape"
   xmlns:sodipodi="http://sodipodi.sourceforge.net/DTD/sodipodi-0.dtd"
   xmlns="http://www.w3.org/2000/svg"
   xmlns:svg="http://www.w3.org/2000/svg"><sodipodi:namedview
     id="namedview7"
     pagecolor="#00ff00"
     bordercolor="#000000"
     borderopacity="0.25"
     inkscape:showpageshadow="2"
     inkscape:pageopacity="1"
     inkscape:pagecheckerboard="0"
     inkscape:deskcolor="#d1d1d1"
     inkscape:document-units="mm"
     showgrid="false"
     inkscape:zoom="3.1318646"
     inkscape:cx="55.717607"
     inkscape:cy="96.42818"
     inkscape:window-width="1920"
     inkscape:window-height="1017"
     inkscape:window-x="-8"
     inkscape:window-y="-8"
     inkscape:window-maximized="1"
     inkscape:current-layer="layer1" /><defs
     id="defs2" /><g
     inkscape:label="Layer 1"
     inkscape:groupmode="layer"
     id="layer1"
     transform="translate(-117.13128,-28.599015)"><g
       style="fill:none"
       id="g3892"
       transform="matrix(2.2727273,0,0,2.2727273,114.85855,26.326288)"><path
         fill-rule="evenodd"
         clip-rule="evenodd"
         d="m 11,2 a 1,1 0 0 1 2,0 V 4.062 A 8.004,8.004 0 0 1 19.938,11 H 22 a 1,1 0 0 1 0,2 H 19.938 A 8.004,8.004 0 0 1 13,19.938 V 22 a 1,1 0 0 1 -2,0 V 19.938 A 8.004,8.004 0 0 1 4.062,13 H 2 A 1,1 0 0 1 2,11 H 4.062 A 8.004,8.004 0 0 1 11,4.062 Z m 7,10 a 6,6 0 1 0 -12,0 6,6 0 0 0 12,0 z m -3,0 a 3,3 0 1 1 -6,0 3,3 0 0 1 6,0 z"
         fill="#000000"
         id="path3883" /></g><g
       id="g4108"
       transform="matrix(0.77938442,0,0,0.71893312,45.871983,-12.454343)"><ellipse
         style="fill:#00ff00;stroke:none;stroke-width:2.84054;stroke-dasharray:8.44275, 1.05534;stroke-opacity:1"
         id="path4103"
         cx="108.07481"
         cy="107.75803"
         rx="13.302807"
         ry="12.451722" /><path
         d="m 98.279847,114.48773 10.757823,-10.75786 c 0.62999,-0.62999 0.184,-1.70798 -0.70599,-1.70798 h -4.62392 c -1.10399,0 -1.99998,-0.89599 -1.99998,-1.99997 0,-1.103983 0.89599,-1.999973 1.99998,-1.999973 h 9.99983 c 2.20996,0 3.99994,1.79198 3.99994,3.999943 v 9.99987 c 0,1.10399 -0.89599,1.99998 -1.99997,1.99998 -1.10398,0 -1.99997,-0.89599 -1.99997,-1.99998 v -4.88994 c 0,-0.89198 -1.07798,-1.33798 -1.70797,-0.70799 l -9.47385,9.47589 c -0.78199,0.77999 -0.78199,2.04597 0,2.82796 l 0.82399,0.82399 c 1.56198,1.56198 1.56198,4.09395 0,5.65793 l -12.227792,12.22585 c -0.77999,0.78199 -2.04797,0.78199 -2.827955,0 v 0 c -0.781985,-0.77999 -0.781985,-2.04598 0,-2.82797 l 10.81181,-10.81186 c 0.78199,-0.78199 0.77999,-2.04798 -0.002,-2.82997 l -0.819976,-0.81799 c -1.56598,-1.56198 -1.56798,-4.09595 0,-5.65993"
         id="arrow_left_up-[#295]"
         style="fill:#000000;fill-rule:evenodd;stroke:none;stroke-width:1.99997" /></g><ellipse
       style="fill:#ffffff;stroke:none;stroke-width:1.77644;stroke-dasharray:5.28, 0.66;stroke-opacity:1"
       id="path4116"
       cx="142.0242"
       cy="53.580647"
       rx="2.9274194"
       ry="2.8387096" /><path
       style="fill:#00ff00;stroke:#00ff00;stroke-width:4.05243"
       d="m 90.790702,104.46347 c -3.198586,-1.19429 -5.053462,-2.82065 -6.576078,-5.765893 -1.168208,-2.259704 -1.217588,-5.954817 -0.11251,-8.419236 1.161058,-2.58926 3.95193,-4.999422 6.78589,-5.860211 5.205452,-1.581108 10.670516,0.775744 13.060426,5.632405 0.65553,1.332137 0.78063,2.051434 0.77603,4.461853 -0.005,2.378488 -0.13224,3.113002 -0.7411,4.262449 -1.11209,2.099473 -3.11137,4.086793 -5.080696,5.050293 -2.126305,1.0403 -6.180912,1.35937 -8.111962,0.63834 z"
       id="path446"
       transform="matrix(0.26458333,0,0,0.26458333,117.13128,28.599015)" /></g></svg>
