<?xml version="1.0" encoding="UTF-8" standalone="no"?>
<!-- Created with Inkscape (http://www.inkscape.org/) -->

<svg
   width="158.75mm"
   height="158.75002mm"
   viewBox="0 0 158.75 158.75002"
   version="1.1"
   id="svg4342"
   xml:space="preserve"
   xmlns:inkscape="http://www.inkscape.org/namespaces/inkscape"
   xmlns:sodipodi="http://sodipodi.sourceforge.net/DTD/sodipodi-0.dtd"
   xmlns="http://www.w3.org/2000/svg"
   xmlns:svg="http://www.w3.org/2000/svg"><sodipodi:namedview
     id="namedview4344"
     pagecolor="#000000"
     bordercolor="#000000"
     borderopacity="0.25"
     inkscape:showpageshadow="2"
     inkscape:pageopacity="0"
     inkscape:pagecheckerboard="0"
     inkscape:deskcolor="#d1d1d1"
     inkscape:document-units="mm"
     showgrid="false" /><defs
     id="defs4339" /><g
     inkscape:label="Layer 1"
     inkscape:groupmode="layer"
     id="layer1"
     transform="translate(-26.012095,-49.076613)"><g
       style="fill:#ffffff;fill-opacity:1"
       id="g4850"
       transform="matrix(13.229167,0,0,13.229167,-0.44623928,22.618278)"
       inkscape:export-filename="computron.svg"
       inkscape:export-xdpi="96"
       inkscape:export-ydpi="96"><path
         class="cls-1"
         d="M 14,12 V 6 H 5 v 6 h 4 v 1 H 7 v 1 h 5 V 13 H 10 V 12 Z M 6,11 V 7 h 7 v 4 z M 7,5 H 4 V 4 H 7 Z M 8,5 V 3 H 3 v 7 h 1 v 3 h 2 v 1 H 3 A 1,1 0 0 1 2,13 V 3 A 1,1 0 0 1 3,2 h 5 a 1,1 0 0 1 1,1 v 2 z"
         id="path4842"
         style="fill:#ffffff;fill-opacity:1" /></g></g></svg>
