<?xml version="1.0" encoding="UTF-8" standalone="no"?>
<!-- Created with Inkscape (http://www.inkscape.org/) -->

<svg
   width="176.38889mm"
   height="141.11154mm"
   viewBox="0 0 176.38889 141.11154"
   version="1.1"
   id="svg5"
   xml:space="preserve"
   xmlns:inkscape="http://www.inkscape.org/namespaces/inkscape"
   xmlns:sodipodi="http://sodipodi.sourceforge.net/DTD/sodipodi-0.dtd"
   xmlns="http://www.w3.org/2000/svg"
   xmlns:svg="http://www.w3.org/2000/svg"><sodipodi:namedview
     id="namedview7"
     pagecolor="#000000"
     bordercolor="#000000"
     borderopacity="0.25"
     inkscape:showpageshadow="2"
     inkscape:pageopacity="0"
     inkscape:pagecheckerboard="0"
     inkscape:deskcolor="#d1d1d1"
     inkscape:document-units="mm"
     showgrid="false" /><defs
     id="defs2" /><g
     inkscape:label="Layer 1"
     inkscape:groupmode="layer"
     id="layer1"
     transform="translate(-12.934587,-47.250674)"><g
       id="g3398"
       inkscape:export-filename="joystick.svg"
       inkscape:export-xdpi="96"
       inkscape:export-ydpi="96"><path
         fill="none"
         d="M 171.5082,88.878898 C 170.5998,75.693829 159.04632,64.890009 145.22625,64.890009 H 57.03181 a 26.255486,26.255486 0 0 0 -26.378958,25.285347 8.6430555,8.6430555 0 0 1 -0.15875,1.367014 l 0.07937,65.95181 c 0,3.50132 1.402292,6.91444 3.854097,9.36625 2.460625,2.46062 5.87375,3.86291 9.37507,3.86291 4.409722,0 9.154583,-5.6268 14.649097,-12.14437 2.963333,-3.50132 6.323541,-7.48771 10.133541,-11.12132 5.08882,-4.8507 16.060209,-9.69257 21.687014,-11.01549 3.686528,-0.8643 8.387292,-0.9966 10.856739,-0.9966 2.46944,0 7.1702,0.1323 10.8391,0.98778 5.64444,1.33174 16.61582,6.17361 21.70464,11.01549 3.81882,3.64243 7.17021,7.62 10.13354,11.13014 5.49452,6.51757 10.23939,12.14437 14.64911,12.14437 a 13.317361,13.317361 0 0 0 9.36625,-3.8541 c 2.46063,-2.46062 3.86292,-5.87374 3.86292,-9.37506 V 91.348343 c -0.11466,-0.555625 -0.0882,-0.846667 -0.0882,-1.411112 a 3.7659028,3.7659028 0 0 1 -0.0882,-1.058333 z M 65.851255,117.80668 a 17.638889,17.638889 0 1 1 -0.0088,-35.268962 17.638889,17.638889 0 0 1 0.0088,35.268962 z M 136.40681,73.709454 a 8.8194445,8.8194445 0 1 1 0,17.638889 8.8194445,8.8194445 0 1 1 0,-17.638889 z m -17.63889,35.277776 a 8.8194444,8.8194444 0 1 1 0,-17.638887 8.8194444,8.8194444 0 1 1 0,17.638887 z m 17.63889,17.63889 a 8.819445,8.819445 0 1 1 0,-17.63889 8.819445,8.819445 0 1 1 0,17.63889 z m 17.63889,-17.63889 a 8.8194444,8.8194444 0 1 1 0,-17.638887 8.8194444,8.8194444 0 1 1 0,17.638887 z"
         id="path623"
         style="stroke-width:8.81944" /><path
         d="M 189.13827,88.279176 A 44.141319,44.141319 0 0 0 145.22625,47.251121 H 57.03181 A 43.832639,43.832639 0 0 0 13.049241,89.028829 c -0.08819,0.696736 -0.114653,1.41993 -0.114653,2.231319 v 66.234032 c 0,8.15798 3.289653,16.12194 9.013472,21.83694 a 31.079722,31.079722 0 0 0 21.854584,9.03111 c 12.602986,0 20.496388,-9.35743 28.125208,-18.40618 2.804583,-3.32493 5.697361,-6.76451 8.819444,-9.72785 2.090209,-1.99319 9.719028,-5.70618 13.573125,-6.6234 2.2225,-0.52035 11.403539,-0.51153 13.590769,-0.009 3.87173,0.91722 11.50055,4.63903 13.59076,6.6234 3.12208,2.97216 6.01486,6.41174 8.81944,9.73667 7.63764,9.04875 15.53104,18.40618 28.13403,18.40618 8.15799,0 16.12195,-3.28965 21.83695,-9.01347 A 31.079722,31.079722 0 0 0 189.32348,157.494 V 91.348343 c 0,-0.837848 -0.0353,-1.5875 -0.12348,-2.293056 z m -17.45368,69.215004 c 0,3.50132 -1.40229,6.91444 -3.86292,9.37506 a 13.317361,13.317361 0 0 1 -9.36625,3.8541 c -4.40972,0 -9.15458,-5.6268 -14.6491,-12.14437 -2.96333,-3.50132 -6.32354,-7.48771 -10.13354,-11.13014 -5.08882,-4.84188 -16.06021,-9.68375 -21.70465,-11.01549 -3.66889,-0.85548 -8.36965,-0.98778 -10.8391,-0.98778 -2.469442,0 -7.170206,0.1323 -10.847914,0.9966 -5.626806,1.32292 -16.598195,6.16479 -21.687014,11.01549 -3.81882,3.63361 -7.170208,7.61118 -10.133542,11.12132 -5.503333,6.51757 -10.248194,12.14437 -14.657916,12.14437 -3.50132,0 -6.914445,-1.40229 -9.37507,-3.86291 a 13.317361,13.317361 0 0 1 -3.854097,-9.36625 l -0.07937,-65.95181 c 0.08819,-0.449791 0.141111,-0.908402 0.15875,-1.367014 A 26.255486,26.255486 0 0 1 57.03181,64.890009 h 88.19444 c 13.82007,0 25.37355,10.80382 26.28195,23.988889 0,0.529167 0.0441,1.058333 0.0882,1.058333 0,0.564445 -0.0265,0.855487 0.0882,1.411112 z"
         id="path625"
         style="fill:#ffffff;fill-opacity:1;stroke-width:8.81944" /><circle
         cx="136.40681"
         cy="117.80668"
         r="8.8194447"
         id="circle627"
         style="fill:#ffffff;fill-opacity:1;stroke-width:8.81944" /><circle
         cx="154.0457"
         cy="100.16779"
         r="8.8194447"
         id="circle629"
         style="fill:#ffffff;fill-opacity:1;stroke-width:8.81944" /><circle
         cx="136.40681"
         cy="82.5289"
         r="8.8194447"
         id="circle631"
         style="fill:#ffffff;fill-opacity:1;stroke-width:8.81944" /><circle
         cx="118.76792"
         cy="100.16779"
         r="8.8194447"
         id="circle633"
         style="fill:#ffffff;fill-opacity:1;stroke-width:8.81944" /><circle
         cx="65.851257"
         cy="100.16779"
         r="17.638889"
         id="circle635"
         style="fill:#ffffff;fill-opacity:1;stroke-width:8.81944" /></g></g></svg>
